<?xml version="1.0" encoding="UTF-8" standalone="no"?>
<!-- Created with Inkscape (http://www.inkscape.org/) -->

<svg
   xmlns:dc="http://purl.org/dc/elements/1.1/"
   xmlns:cc="http://creativecommons.org/ns#"
   xmlns:rdf="http://www.w3.org/1999/02/22-rdf-syntax-ns#"
   xmlns:svg="http://www.w3.org/2000/svg"
   xmlns="http://www.w3.org/2000/svg"
   xmlns:sodipodi="http://sodipodi.sourceforge.net/DTD/sodipodi-0.dtd"
   xmlns:inkscape="http://www.inkscape.org/namespaces/inkscape"
   width="108px"
   height="108px"
   viewBox="0 0 108 108"
   version="1.1"
   id="SVGRoot"
   inkscape:export-filename="C:\xampp\htdocs\iws-poland\img\certificate.png"
   inkscape:export-xdpi="304"
   inkscape:export-ydpi="304"
   inkscape:version="0.92.3 (2405546, 2018-03-11)">
  <sodipodi:namedview
     id="base"
     pagecolor="#ffffff"
     bordercolor="#666666"
     borderopacity="1.0"
     inkscape:pageopacity="0.0"
     inkscape:pageshadow="2"
     inkscape:zoom="6.7044198"
     inkscape:cx="74.584336"
     inkscape:cy="67.255476"
     inkscape:document-units="px"
     inkscape:current-layer="layer2"
     showgrid="false"
     inkscape:window-width="1920"
     inkscape:window-height="1017"
     inkscape:window-x="-8"
     inkscape:window-y="-8"
     inkscape:window-maximized="1"
     inkscape:grid-bbox="true"
     showguides="true"
     inkscape:guide-bbox="true">
    <sodipodi:guide
       position="81.210938,52.576172"
       orientation="1,0"
       id="guide1473"
       inkscape:locked="false" />
    <sodipodi:guide
       position="36.766791,63.913062"
       orientation="1,0"
       id="guide1475"
       inkscape:locked="false" />
  </sodipodi:namedview>
  <defs
     id="defs815" />
  <metadata
     id="metadata818">
    <rdf:RDF>
      <cc:Work
         rdf:about="">
        <dc:format>image/svg+xml</dc:format>
        <dc:type
           rdf:resource="http://purl.org/dc/dcmitype/StillImage" />
        <dc:title></dc:title>
      </cc:Work>
    </rdf:RDF>
  </metadata>
  <g
     inkscape:groupmode="layer"
     id="layer2"
     inkscape:label="Layer 2">
    <path
       id="path1448"
       style="color:#000000;font-style:normal;font-variant:normal;font-weight:normal;font-stretch:normal;font-size:medium;line-height:normal;font-family:sans-serif;font-variant-ligatures:normal;font-variant-position:normal;font-variant-caps:normal;font-variant-numeric:normal;font-variant-alternates:normal;font-feature-settings:normal;text-indent:0;text-align:start;text-decoration:none;text-decoration-line:none;text-decoration-style:solid;text-decoration-color:#000000;letter-spacing:normal;word-spacing:normal;text-transform:none;writing-mode:lr-tb;direction:ltr;text-orientation:mixed;dominant-baseline:auto;baseline-shift:baseline;text-anchor:start;white-space:normal;shape-padding:0;clip-rule:nonzero;display:inline;overflow:visible;visibility:visible;opacity:1;isolation:auto;mix-blend-mode:normal;color-interpolation:sRGB;color-interpolation-filters:linearRGB;solid-color:#000000;solid-opacity:1;vector-effect:none;fill:#000000;fill-opacity:1;fill-rule:nonzero;stroke:none;stroke-width:3;stroke-linecap:round;stroke-linejoin:round;stroke-miterlimit:4;stroke-dasharray:none;stroke-dashoffset:0;stroke-opacity:1;color-rendering:auto;image-rendering:auto;shape-rendering:auto;text-rendering:auto;enable-background:accumulate"
       d="m 56.751953,76.59375 a 1.50015,1.50015 0 0 0 -1.521484,1.753906 l 3.777343,24.091794 -10.580078,-4.775388 a 1.50015,1.50015 0 0 0 -1.421875,0.09961 l -9.253906,5.871098 c -5e-5,-0.18944 -0.0024,-0.15881 -0.002,-0.37891 0.0067,-3.08826 0.06938,-9.312504 0.289062,-21.804688 a 1.5002317,1.5002317 0 1 0 -3,-0.05273 C 34.819241,93.898277 34.756765,100.13071 34.75,103.25 c -0.0034,1.55965 0.0074,2.33722 0.01953,2.75195 0.0061,0.20737 0.01079,0.31676 0.02148,0.42969 0.0053,0.0565 0.0049,0.10209 0.03906,0.24609 0.0085,0.036 0.01987,0.0786 0.04102,0.14063 0.02114,0.062 0.120918,0.26727 0.121094,0.26758 8.7e-5,1.5e-4 0.160089,0.22648 0.160156,0.22656 6.7e-5,8e-5 0.349564,0.2988 0.349609,0.29883 0,0 0.791016,-1.27539 0.791016,-1.27539 a 1.50015,1.50015 0 0 0 0.802734,1.26758 l 10.833985,-6.87305 12.373046,5.58398 a 1.50015,1.50015 0 0 0 2.09961,-1.59961 L 58.193359,77.882812 A 1.50015,1.50015 0 0 0 56.751953,76.59375 Z M 44.361328,53.658203 a 1.50015,1.50015 0 0 0 -1.134766,0.558594 l -2.5,3.107422 -3.966796,0.43164 a 1.50015,1.50015 0 0 0 -1.328125,1.652344 l 0.429687,3.966797 -2.5,3.107422 a 1.50015,1.50015 0 0 0 0.228516,2.109375 l 3.107422,2.498047 0.43164,3.966797 a 1.50015,1.50015 0 0 0 1.652344,1.328125 l 3.964844,-0.429688 3.109375,2.5 a 1.50015,1.50015 0 0 0 2.109375,-0.228516 l 2.5,-3.109374 3.964844,-0.429688 a 1.50015,1.50015 0 0 0 1.328124,-1.652344 l -0.429687,-3.964844 2.5,-3.107421 a 1.50015,1.50015 0 0 0 -0.228516,-2.109375 l -3.109375,-2.5 -0.429687,-3.966797 a 1.50015,1.50015 0 0 0 -1.652344,-1.328125 l -3.964844,0.429687 -3.107421,-2.5 a 1.50015,1.50015 0 0 0 -0.97461,-0.330078 z m 0.263672,3.607422 2.421875,1.949219 a 1.50015,1.50015 0 0 0 1.101563,0.322265 l 3.091796,-0.333984 0.335938,3.091797 a 1.50015,1.50015 0 0 0 0.550781,1.005859 L 54.550781,65.25 52.601562,67.675781 a 1.50015,1.50015 0 0 0 -0.322265,1.101563 l 0.333984,3.089844 -3.089843,0.335937 a 1.50015,1.50015 0 0 0 -1.007813,0.550781 l -1.949219,2.423828 -2.423828,-1.949218 A 1.50015,1.50015 0 0 0 43.041016,72.90625 l -3.091797,0.333984 -0.335938,-3.091796 A 1.50015,1.50015 0 0 0 39.0625,69.142578 l -2.421875,-1.949219 1.947266,-2.421875 a 1.50015,1.50015 0 0 0 0.322265,-1.101562 l -0.335937,-3.09375 3.09375,-0.335938 a 1.50015,1.50015 0 0 0 1.007812,-0.550781 z m 18.773438,9.289063 a 2.0002,2.0002 0 1 0 0,4 h 15.832031 a 2.0002,2.0002 0 1 0 0,-4 z M 61.878906,54.320312 a 2.0001998,2.0001998 0 1 0 0,4 H 79.28125 a 2.0001998,2.0001998 0 1 0 0,-4 z M 38.796875,42.138672 a 2.0002,2.0002 0 1 0 0,4 h 40.425781 a 2.0002,2.0002 0 1 0 0,-4 z M 38.664062,29.535156 a 2.0001999,2.0001999 0 1 0 0,4 h 31.15625 a 2.0001999,2.0001999 0 1 0 0,-4 z M 68.558594,1.7617188 a 2.0001999,2.0001999 0 0 0 -1.96875,2.0273437 V 21.414062 a 2.0001999,2.0001999 0 0 0 2,2 h 18.591797 a 2.0001999,2.0001999 0 1 0 0,-4 H 70.589844 V 3.7890625 A 2.0001999,2.0001999 0 0 0 68.558594,1.7617188 Z M 29.085938,1.5917969 a 2.0002,2.0002 0 0 0 -2,2 V 82.195312 a 2.0002,2.0002 0 1 0 4,0 V 5.5917969 H 68.529297 L 85.181641,22.244141 v 58.25 H 64.583984 a 2.0002,2.0002 0 1 0 0,4 h 22.597657 a 2.0002,2.0002 0 0 0 2,-2 V 21.416016 A 2.0002,2.0002 0 0 0 88.595703,20.001953 L 70.771484,2.1777344 A 2.0002,2.0002 0 0 0 69.357422,1.5917969 Z" />
  </g>
</svg>
