<?xml version="1.0" encoding="UTF-8" standalone="no"?>
<!-- Created with Inkscape (http://www.inkscape.org/) -->

<svg
   xmlns:dc="http://purl.org/dc/elements/1.1/"
   xmlns:cc="http://creativecommons.org/ns#"
   xmlns:rdf="http://www.w3.org/1999/02/22-rdf-syntax-ns#"
   xmlns:svg="http://www.w3.org/2000/svg"
   xmlns="http://www.w3.org/2000/svg"
   xmlns:sodipodi="http://sodipodi.sourceforge.net/DTD/sodipodi-0.dtd"
   xmlns:inkscape="http://www.inkscape.org/namespaces/inkscape"
   width="210mm"
   height="297mm"
   viewBox="0 0 210 297"
   version="1.1"
   id="svg834"
   inkscape:version="0.92.3 (2405546, 2018-03-11)"
   sodipodi:docname="contact.svg">
  <defs
     id="defs828" />
  <sodipodi:namedview
     id="base"
     pagecolor="#ffffff"
     bordercolor="#666666"
     borderopacity="1.0"
     inkscape:pageopacity="0.0"
     inkscape:pageshadow="2"
     inkscape:zoom="3.959798"
     inkscape:cx="344.67861"
     inkscape:cy="713.21443"
     inkscape:document-units="mm"
     inkscape:current-layer="layer1"
     showgrid="false"
     inkscape:window-width="1920"
     inkscape:window-height="1017"
     inkscape:window-x="-8"
     inkscape:window-y="-8"
     inkscape:window-maximized="1" />
  <metadata
     id="metadata831">
    <rdf:RDF>
      <cc:Work
         rdf:about="">
        <dc:format>image/svg+xml</dc:format>
        <dc:type
           rdf:resource="http://purl.org/dc/dcmitype/StillImage" />
        <dc:title></dc:title>
      </cc:Work>
    </rdf:RDF>
  </metadata>
  <g
     inkscape:label="Layer 1"
     inkscape:groupmode="layer"
     id="layer1">
    <path
       style="color:#ffffff;font-style:normal;font-variant:normal;font-weight:normal;font-stretch:normal;font-size:medium;line-height:normal;font-family:sans-serif;font-variant-ligatures:normal;font-variant-position:normal;font-variant-caps:normal;font-variant-numeric:normal;font-variant-alternates:normal;font-feature-settings:normal;text-indent:0;text-align:start;text-decoration:none;text-decoration-line:none;text-decoration-style:solid;text-decoration-color:#ffffff;letter-spacing:normal;word-spacing:normal;text-transform:none;writing-mode:lr-tb;direction:ltr;text-orientation:mixed;dominant-baseline:auto;baseline-shift:baseline;text-anchor:start;white-space:normal;shape-padding:0;clip-rule:nonzero;display:inline;overflow:visible;visibility:visible;opacity:1;isolation:auto;mix-blend-mode:normal;color-interpolation:sRGB;color-interpolation-filters:linearRGB;solid-color:#ffffff;solid-opacity:1;vector-effect:none;fill:#ffffff;fill-opacity:1;fill-rule:evenodd;stroke:none;stroke-width:1.05833328;stroke-linecap:butt;stroke-linejoin:miter;stroke-miterlimit:4;stroke-dasharray:none;stroke-dashoffset:0;stroke-opacity:1;color-rendering:auto;image-rendering:auto;shape-rendering:auto;text-rendering:auto;enable-background:accumulate"
       d="m 99.383611,89.508888 c -0.6414,0.142385 -0.31806,0.942264 -0.39688,1.418076 0,0.439569 0,0.879139 0,1.318708 0.6243,0.34575 0.94258,0.373806 0.79375,-0.414017 0,-0.509672 0,-1.019345 0,-1.529017 6.846099,0 13.692189,0 20.538279,0 0,4.712891 0,9.425781 0,14.138672 -2.46083,0 -4.92166,0 -7.38249,0 0.61318,0.32393 1.09561,0.96392 1.85024,0.79375 1.97638,0 3.95275,0 5.92913,0 0.6414,-0.14239 0.31806,-0.94226 0.39687,-1.41808 0,-4.637069 0,-9.274143 0,-13.911217 -0.14238,-0.641397 -0.94226,-0.31806 -1.41807,-0.396875 -6.77028,0 -13.54055,0 -20.310829,0 z m 19.454629,2.182296 c -1.17618,0.785108 -2.19215,1.851783 -3.30513,2.747078 -1.81903,1.569914 -3.64316,3.134031 -5.4499,4.7181 -1.30576,-1.010822 -2.55594,-2.199643 -3.84402,-3.275955 -1.62377,-1.38352 -3.21732,-2.808843 -4.86522,-4.159756 -1.395399,0.230231 0.5358,1.442941 0.97238,1.854489 2.4512,2.114075 4.91292,4.219435 7.34548,6.353039 0.9498,0.377291 1.54759,-0.983303 2.31164,-1.39344 2.39621,-2.093909 4.83983,-4.13947 7.21649,-6.251568 0.16107,-0.258025 -0.0882,-0.618855 -0.38172,-0.591987 z m -20.702099,0.689364 c -1.89071,0.785007 -2.93955,2.885874 -3.05976,4.837947 0.92205,3.259945 3.10301,5.999805 5.429009,8.391465 2.91755,2.78678 6.56243,4.88684 10.50438,5.7994 1.672,-0.58839 3.60914,-1.42908 4.23935,-3.23009 0.22679,-1.53219 -1.58387,-2.37399 -2.57378,-3.22831 -1.04409,-0.73982 -2.62866,-1.71736 -3.69588,-0.45575 -0.96786,0.5932 -0.64664,2.58643 -2.13821,1.81692 -2.24737,-0.7308 -4.0975,-2.41367 -5.47771,-4.29111 -0.53299,-0.86244 -1.674039,-2.572809 -0.055,-2.864992 0.99791,-0.613005 1.76086,-2.043129 0.95245,-3.099219 -0.96241,-1.575332 -2.331569,-3.076554 -4.124809,-3.676261 z m 0.061,1.172021 c 1.4687,0.727172 2.687519,2.012667 3.356379,3.502629 -0.1275,1.058464 -1.28387,1.565361 -2.144049,1.699121 -0.36951,2.296861 1.224219,4.307501 2.758539,5.815711 1.52401,1.39134 3.30132,2.78168 5.42965,2.96294 0.96506,0.10951 1.60268,-0.23893 1.42305,-1.23542 0.32127,-1.50788 1.90769,-1.61905 2.85866,-0.60437 0.73321,0.72472 2.89477,1.51015 2.04619,2.74253 -0.74485,0.94118 -1.87282,1.48064 -2.9783,1.87811 -3.68123,-0.90583 -7.07412,-2.9143 -9.77862,-5.55299 -2.063799,-2.20624 -4.032819,-4.65722 -4.993999,-7.561158 0.0314,-1.078268 0.55709,-2.170766 1.24528,-3.008488 0.2243,-0.250866 0.48443,-0.471536 0.77722,-0.638615 z m 7.810889,4.755266 c -1.29846,1.142221 -2.59691,2.284445 -3.89537,3.426665 0.29247,0.95849 0.77806,0.42425 1.23384,-0.0276 1.09371,-0.96232 2.18742,-1.924644 3.28113,-2.886965 -0.20653,-0.170704 -0.41307,-0.341409 -0.6196,-0.512113 z m 8.04912,0.0031 c -0.3228,0.271956 -0.88116,0.540239 -0.2623,0.826881 1.57744,1.387664 3.15488,2.775334 4.73231,4.162994 1.00798,0.3439 0.55842,-0.86163 -0.0383,-1.091 -1.47725,-1.29963 -2.9545,-2.599251 -4.43174,-3.898876 z m -14.897799,6.854365 0.0258,0.016 z"
       id="path936"
       inkscape:connector-curvature="0"
       inkscape:export-xdpi="304"
       inkscape:export-ydpi="304" />
  </g>
</svg>
