<?xml version="1.0" encoding="UTF-8" standalone="no"?>
<!-- Created with Inkscape (http://www.inkscape.org/) -->

<svg
   xmlns:dc="http://purl.org/dc/elements/1.1/"
   xmlns:cc="http://creativecommons.org/ns#"
   xmlns:rdf="http://www.w3.org/1999/02/22-rdf-syntax-ns#"
   xmlns:svg="http://www.w3.org/2000/svg"
   xmlns="http://www.w3.org/2000/svg"
   xmlns:sodipodi="http://sodipodi.sourceforge.net/DTD/sodipodi-0.dtd"
   xmlns:inkscape="http://www.inkscape.org/namespaces/inkscape"
   width="210mm"
   height="297mm"
   viewBox="0 0 210 297"
   version="1.1"
   id="svg2895"
   inkscape:export-filename="C:\Users\conta\Desktop\home.png"
   inkscape:export-xdpi="304"
   inkscape:export-ydpi="304"
   inkscape:version="0.92.3 (2405546, 2018-03-11)"
   sodipodi:docname="menu.svg">
  <defs
     id="defs2889" />
  <sodipodi:namedview
     id="base"
     pagecolor="#ffffff"
     bordercolor="#666666"
     borderopacity="1.0"
     inkscape:pageopacity="0.0"
     inkscape:pageshadow="2"
     inkscape:zoom="8"
     inkscape:cx="218.35467"
     inkscape:cy="805.07748"
     inkscape:document-units="mm"
     inkscape:current-layer="layer1"
     showgrid="false"
     inkscape:object-paths="true"
     inkscape:window-width="1920"
     inkscape:window-height="1017"
     inkscape:window-x="-8"
     inkscape:window-y="-8"
     inkscape:window-maximized="1" />
  <metadata
     id="metadata2892">
    <rdf:RDF>
      <cc:Work
         rdf:about="">
        <dc:format>image/svg+xml</dc:format>
        <dc:type
           rdf:resource="http://purl.org/dc/dcmitype/StillImage" />
        <dc:title />
      </cc:Work>
    </rdf:RDF>
  </metadata>
  <g
     inkscape:label="Layer 1"
     inkscape:groupmode="layer"
     id="layer1">
    <path
       style="opacity:1;fill:#ff3aff;fill-opacity:0.43935311;stroke:none;stroke-width:0.99999994"
       d="M 160.9082 328.17969 C 160.90027 328.17969 160.8927 328.18154 160.88477 328.18164 L 160.88477 334.41797 C 160.96935 334.40172 161.05507 334.39258 161.14453 334.39258 L 172.37109 334.39258 C 173.13008 334.39258 173.74023 335.00469 173.74023 335.76367 L 173.74023 349.89648 L 173.74023 351.86914 L 173.74023 359.96289 L 173.74023 360.11523 L 173.74023 360.49219 L 174.17188 360.92383 C 174.50328 361.14047 174.81714 361.39136 175.10742 361.68164 L 175.30469 361.87891 L 177.34766 363.92188 L 177.73438 364.30859 L 179.80273 366.37695 L 184.04688 370.62109 C 186.03784 372.61208 186.28577 375.69703 184.85742 378.16016 L 173.04492 378.16016 L 173.04492 381.35352 L 173.04492 381.93359 L 173.04492 407.98242 L 159.69727 407.98242 L 159.69727 391.99414 C 159.69727 387.84191 156.35537 384.5 152.20312 384.5 L 145.80859 384.5 L 139.41406 384.5 C 135.26181 384.5 131.91992 387.84191 131.91992 391.99414 L 131.91992 407.98242 L 118.57227 407.98242 L 118.57227 381.93359 L 118.57227 381.35352 L 118.57227 378.16016 L 106.75977 378.16016 C 105.33142 375.69705 105.57934 372.61208 107.57031 370.62109 L 111.81445 366.37695 L 113.88281 364.30859 L 114.26953 363.92188 L 115.44727 362.74414 L 126.7793 351.0625 L 132.50586 345.33594 L 135.24414 342.59766 L 141.44531 336.39648 C 142.6317 335.21011 144.20781 334.64378 145.80859 334.67969 C 147.40937 334.64366 148.98549 335.2101 150.17188 336.39648 L 156.37305 342.59766 L 159.11133 345.33594 L 164.83789 351.0625 L 168.88672 347.01367 L 154.69141 332.81836 A 11.352071 10.523033 0 0 0 145.80859 328.64844 A 11.352071 10.523033 0 0 0 136.92578 332.81836 L 122.73047 347.01367 L 111.22461 358.52148 L 109.56055 360.18359 L 104.95312 364.79102 L 101.08984 368.6543 A 10.523033 11.445821 0 0 0 99.378906 374.88477 A 10.523033 11.445821 0 0 0 104.23047 384.51367 L 111.87891 384.51367 C 112.12373 384.51367 112.32031 384.71212 112.32031 384.95703 L 112.32031 386.01367 L 112.32031 387.36523 L 112.32031 407.98047 L 112.32031 413.98047 L 137.93945 413.98047 L 137.93945 413.94922 L 138.24609 413.94922 L 138.24609 392.08203 C 138.24609 391.32306 138.85624 390.71094 139.61523 390.71094 L 145.80859 390.71094 L 152.00195 390.71094 C 152.76094 390.71094 153.37109 391.32306 153.37109 392.08203 L 153.37109 413.94922 L 153.67773 413.94922 L 153.67773 413.97852 L 179.29688 413.97852 L 179.29688 407.97852 L 179.29688 387.36328 L 179.29688 386.01172 L 179.29688 384.95508 C 179.29688 384.71016 179.49345 384.51172 179.73828 384.51172 L 187.38672 384.51172 A 10.523033 11.445821 0 0 0 192.23828 374.88477 A 10.523033 11.445821 0 0 0 190.52734 368.6543 L 186.66406 364.79102 L 182.05664 360.18359 L 180.06445 358.19336 C 180.06454 358.179 180.06641 358.16502 180.06641 358.15039 L 180.06641 335.67383 C 180.06641 331.52159 176.72451 328.17969 172.57227 328.17969 L 160.9082 328.17969 z "
       id="rect2594-4"
       transform="scale(0.26458333)" />
    <path
       id="rect816"
       style="opacity:1;fill:#ffffff;fill-opacity:1;stroke:none;stroke-width:0.19378924"
       d="m 63.621013,86.677963 c -0.335265,0 -0.605222,0.275191 -0.605222,0.616955 v 0.08638 c 0,0.341765 0.269957,0.616955 0.605222,0.616955 h 10.789555 c 0.335265,0 0.605225,-0.275195 0.605223,-0.616955 v -0.08638 c 2e-6,-0.341766 -0.269956,-0.61696 -0.605223,-0.616955 z m 0,-2.869025 c -0.335265,0 -0.605222,0.274735 -0.605222,0.616497 v 0.08684 c 0,0.341764 0.269957,0.616955 0.605222,0.616955 h 10.789555 c 0.335265,0 0.605225,-0.275196 0.605223,-0.616955 v -0.08638 c 2e-6,-0.341767 -0.269956,-0.61696 -0.605223,-0.616956 z m 0,-2.869024 c -0.335265,0 -0.605222,0.274735 -0.605222,0.616497 v 0.08684 c 0,0.341763 0.269957,0.616954 0.605222,0.616954 h 10.789555 c 0.335265,0 0.605225,-0.275195 0.605223,-0.616954 v -0.08638 c 2e-6,-0.341767 -0.269956,-0.61696 -0.605223,-0.616955 z"
       inkscape:export-filename="C:\Users\conta\Desktop\menu.png"
       inkscape:export-xdpi="304"
       inkscape:export-ydpi="304" />
  </g>
</svg>
