<?xml version="1.0" encoding="UTF-8" standalone="no"?>
<!-- Created with Inkscape (http://www.inkscape.org/) -->

<svg
   xmlns:dc="http://purl.org/dc/elements/1.1/"
   xmlns:cc="http://creativecommons.org/ns#"
   xmlns:rdf="http://www.w3.org/1999/02/22-rdf-syntax-ns#"
   xmlns:svg="http://www.w3.org/2000/svg"
   xmlns="http://www.w3.org/2000/svg"
   xmlns:sodipodi="http://sodipodi.sourceforge.net/DTD/sodipodi-0.dtd"
   xmlns:inkscape="http://www.inkscape.org/namespaces/inkscape"
   width="250px"
   height="250px"
   viewBox="0 0 250 250"
   version="1.1"
   id="SVGRoot"
   inkscape:version="0.92.3 (2405546, 2018-03-11)"
   sodipodi:docname="mission-2.svg"
   inkscape:export-filename="C:\xampp\htdocs\project-iws\img\mission-2.png"
   inkscape:export-xdpi="304"
   inkscape:export-ydpi="304">
  <sodipodi:namedview
     id="base"
     pagecolor="#ffffff"
     bordercolor="#666666"
     borderopacity="1.0"
     inkscape:pageopacity="0.0"
     inkscape:pageshadow="2"
     inkscape:zoom="2.048"
     inkscape:cx="3.4559458"
     inkscape:cy="180.00883"
     inkscape:document-units="px"
     inkscape:current-layer="layer1"
     showgrid="false"
     inkscape:window-width="1920"
     inkscape:window-height="1017"
     inkscape:window-x="-8"
     inkscape:window-y="-8"
     inkscape:window-maximized="1"
     inkscape:grid-bbox="true"
     inkscape:snap-global="false" />
  <defs
     id="defs1377" />
  <metadata
     id="metadata1380">
    <rdf:RDF>
      <cc:Work
         rdf:about="">
        <dc:format>image/svg+xml</dc:format>
        <dc:type
           rdf:resource="http://purl.org/dc/dcmitype/StillImage" />
        <dc:title />
      </cc:Work>
    </rdf:RDF>
  </metadata>
  <g
     id="layer1"
     inkscape:groupmode="layer"
     inkscape:label="Layer 1">
    <path
       inkscape:connector-curvature="0"
       style="fill:#ea2639;fill-opacity:1;stroke-width:0.99999988"
       d="m 125,27.878908 c -53.63982,0 -97.121094,43.481278 -97.121094,97.121092 0,53.63983 43.481274,97.12109 97.121094,97.12109 53.63983,0 97.12109,-43.48126 97.12109,-97.12109 0,-53.639814 -43.48126,-97.121091 -97.12109,-97.121092 z m -4.44094,94.078232 C 119.42728,123.84473 117.38696,125 115.18607,125 h -0.1214 c -1.66046,0 -3.25434,0.66184 -4.42919,1.83669 l -2.21656,2.21655 c -1.22184,1.22185 -1.22184,3.20734 0,4.42919 l 2.21656,2.21655 c 1.17485,1.17485 1.83668,2.76874 1.83668,4.4292 v 3.66946 c 0,3.4619 -2.80398,6.26587 -6.26587,6.26587 h -2.39279 c -2.3732,0 -4.542751,-1.33934 -5.604037,-3.46581 l -8.858384,-17.71286 c -0.955546,-1.91108 -3.504971,-2.3262 -5.016612,-0.81455 l -7.624796,7.62086 c -1.17485,1.17486 -2.768734,1.8367 -4.429191,1.8367 H 47.776986 C 47.115151,133.43936 46.676539,129.27646 46.676539,125 46.676539,81.812441 81.812453,46.676536 125,46.676536 c 8.42369,0 16.52626,1.374575 24.13538,3.845683 l -19.64353,15.089015 c -2.00116,1.335417 -1.81318,4.331296 0.3368,5.408239 l 4.24121,2.118651 c 2.12257,1.061287 3.4619,3.230841 3.4619,5.604043 V 109.3353 c 0,1.73096 -1.40199,3.13295 -3.13294,3.13295 h -1.19835 c -1.1866,0 -2.27137,-0.66966 -2.80007,-1.73095 -0.61092,-1.22185 -2.33403,-1.28842 -3.03895,-0.11749 z m 67.09972,43.15622 c 0,1.66046 -0.66184,3.25434 -1.83669,4.4292 l -3.74778,3.74778 c -1.17486,1.17485 -2.76874,1.83668 -4.4292,1.83668 h -5.93691 c -1.66046,0 -3.25434,-0.66183 -4.42919,-1.83668 l -5.09494,-5.09494 a 10.482421,10.482421 0 0 0 -9.95492,-2.75699 l -8.32969,2.0834 c -0.49736,0.12532 -1.00646,0.18798 -1.51948,0.18798 h -4.04933 c -1.66046,0 -3.25434,-0.66184 -4.42919,-1.83669 l -4.66415,-4.66416 a 3.1360714,3.1360714 0 0 1 -0.91639,-2.21656 v -3.99449 c 0,-1.28059 0.77931,-2.43194 1.96983,-2.90972 l 15.40623,-6.16405 c 0.7754,-0.30938 1.51165,-0.71275 2.18913,-1.19444 l 9.28526,-6.61441 a 3.1243229,3.1243229 0 0 1 1.8171,-0.5796 h 4.73465 c 1.26493,0 2.40845,0.75974 2.89405,1.93067 l 2.09515,5.03229 a 1.5664693,1.5664693 0 0 0 1.44507,0.96338 h 1.48815 c 0.69708,0 1.31192,-0.46211 1.50381,-1.12786 l 1.64479,-5.6667 c 0.19581,-0.66967 0.80674,-1.12786 1.50382,-1.12786 h 2.3732 c 0.86547,0 1.56647,0.701 1.56647,1.56647 v 5.06361 c 0,0.83023 0.32895,1.62913 0.91638,2.21655 l 4.66416,4.66417 c 1.17485,1.17484 1.83668,2.76873 1.83668,4.42919 v 9.63378 z"
       id="path2-2" />
  </g>
</svg>
