<?xml version="1.0" encoding="UTF-8" standalone="no"?>
<!-- Created with Inkscape (http://www.inkscape.org/) -->

<svg
   xmlns:dc="http://purl.org/dc/elements/1.1/"
   xmlns:cc="http://creativecommons.org/ns#"
   xmlns:rdf="http://www.w3.org/1999/02/22-rdf-syntax-ns#"
   xmlns:svg="http://www.w3.org/2000/svg"
   xmlns="http://www.w3.org/2000/svg"
   xmlns:sodipodi="http://sodipodi.sourceforge.net/DTD/sodipodi-0.dtd"
   xmlns:inkscape="http://www.inkscape.org/namespaces/inkscape"
   width="250px"
   height="250px"
   viewBox="0 0 250 250"
   version="1.1"
   id="SVGRoot"
   inkscape:version="0.92.3 (2405546, 2018-03-11)"
   sodipodi:docname="mission-3.svg"
   inkscape:export-filename="C:\xampp\htdocs\project-iws\img\mission-3.png"
   inkscape:export-xdpi="304"
   inkscape:export-ydpi="304">
  <sodipodi:namedview
     id="base"
     pagecolor="#ffffff"
     bordercolor="#666666"
     borderopacity="1.0"
     inkscape:pageopacity="0.0"
     inkscape:pageshadow="2"
     inkscape:zoom="2.048"
     inkscape:cx="39.944065"
     inkscape:cy="172.91446"
     inkscape:document-units="px"
     inkscape:current-layer="layer1"
     showgrid="false"
     inkscape:window-width="1920"
     inkscape:window-height="1017"
     inkscape:window-x="-8"
     inkscape:window-y="-8"
     inkscape:window-maximized="1"
     inkscape:grid-bbox="true"
     inkscape:snap-global="false" />
  <defs
     id="defs1377" />
  <metadata
     id="metadata1380">
    <rdf:RDF>
      <cc:Work
         rdf:about="">
        <dc:format>image/svg+xml</dc:format>
        <dc:type
           rdf:resource="http://purl.org/dc/dcmitype/StillImage" />
        <dc:title />
      </cc:Work>
    </rdf:RDF>
  </metadata>
  <g
     id="layer1"
     inkscape:groupmode="layer"
     inkscape:label="Layer 1">
    <path
       id="path816"
       d="m 234.76231,157.20706 c 0.98227,-5.32691 0.98227,-10.76716 0,-16.09408 l 9.74712,-5.62916 c 1.13339,-0.64225 1.62453,-1.96453 1.24673,-3.21126 -2.53123,-8.16038 -6.87587,-15.56517 -12.54281,-21.68545 -0.86893,-0.94449 -2.26677,-1.17117 -3.40016,-0.52892 l -9.74712,5.62915 c -4.11797,-3.51349 -8.84041,-6.23362 -13.94065,-8.04704 V 96.381993 c 0,-1.284501 -0.90671,-2.41789 -2.15343,-2.682346 -8.42484,-1.888982 -17.0008,-1.813423 -25.01007,0 -1.24671,0.264456 -2.15342,1.397845 -2.15342,2.682346 V 107.6403 c -5.10025,1.81342 -9.82269,4.53355 -13.94066,8.04704 l -9.74712,-5.62915 c -1.09561,-0.64225 -2.53123,-0.41557 -3.40016,0.52892 -5.66692,6.12028 -10.01157,13.52507 -12.54279,21.68545 -0.3778,1.24673 0.15112,2.56901 1.24672,3.21126 l 9.74711,5.62916 c -0.98225,5.32692 -0.98225,10.76717 0,16.09408 l -9.74711,5.62916 c -1.13339,0.64225 -1.62452,1.96453 -1.24672,3.21126 2.53122,8.16038 6.87587,15.52739 12.54279,21.68545 0.86893,0.9445 2.26678,1.17117 3.40016,0.52892 l 9.74712,-5.62916 c 4.11797,3.5135 8.84041,6.23363 13.94066,8.04705 v 11.2583 c 0,1.2845 0.90671,2.41789 2.15342,2.68235 8.42485,1.88898 17.00081,1.81342 25.01007,0 1.24672,-0.26446 2.15343,-1.39785 2.15343,-2.68235 v -11.2583 c 5.10024,-1.81342 9.82268,-4.53355 13.94065,-8.04705 l 9.74712,5.62916 c 1.09561,0.64225 2.53123,0.41558 3.40016,-0.52892 5.66694,-6.12028 10.01158,-13.52507 12.54281,-21.68545 0.3778,-1.24673 -0.15112,-2.56901 -1.24673,-3.21126 z m -43.25757,10.27604 c -10.12492,0 -18.32308,-8.23594 -18.32308,-18.32308 0,-10.08714 8.23594,-18.32308 18.32308,-18.32308 10.08713,0 18.32307,8.23594 18.32307,18.32308 0,10.08714 -8.19815,18.32308 -18.32307,18.32308 z M 40.386576,112.89166 c 13.336179,0 24.178907,-10.84273 24.178907,-24.178914 0,-13.336179 -10.842728,-24.178909 -24.178907,-24.178909 -13.336185,0 -24.178913,10.84273 -24.178913,24.178909 0,13.336184 10.842728,24.178914 24.178913,24.178914 z m 84.626184,12.08945 c 0.7178,0 1.39784,-0.18889 2.11565,-0.22668 3.1357,-8.19816 7.7448,-15.90519 13.71397,-22.36548 2.79569,-3.022372 6.76254,-4.760232 10.91828,-4.760232 2.60678,0 5.17579,0.680031 7.40479,2.002316 l 2.98458,1.737856 c 0.30224,-0.18889 0.60447,-0.34001 0.90671,-0.52891 2.64457,-5.515809 4.23131,-11.6361 4.23131,-18.134182 0,-23.385538 -18.92755,-42.313089 -42.31308,-42.313089 -23.38553,0 -42.275304,18.889772 -42.275304,42.27531 0,23.385541 18.927554,42.313091 42.313094,42.313091 z m 39.74406,73.48121 c -0.86893,-0.45335 -1.73786,-0.98227 -2.56901,-1.47339 -3.09792,1.81341 -5.78027,3.70239 -10.38938,3.70239 -4.11795,0 -8.0848,-1.73786 -10.91827,-4.76022 -6.91366,-7.48035 -12.20279,-16.58522 -15.18737,-26.29457 -4.04242,-13.03394 9.4071,-18.77643 9.74712,-19.00311 -0.0378,-0.98227 -0.0378,-1.96454 0,-2.9468 l -2.98459,-1.73786 c -1.43562,-0.83115 -2.64457,-1.88898 -3.70239,-3.06014 -1.24672,0.0756 -2.45567,0.22668 -3.7024,0.22668 -9.29376,0 -17.98306,-2.26678 -25.878981,-6.04474 h -3.135705 c -24.06557,0 -43.559815,19.49425 -43.559815,43.52204 v 10.88051 c 0,10.01158 8.122599,18.13418 18.134176,18.13418 h 96.488945 c -1.39784,-2.26677 -2.34233,-4.83578 -2.34233,-7.66925 z M 69.5146,132.0081 c -4.382423,-4.34464 -10.38937,-7.02699 -17.038571,-7.02699 H 28.297116 c -13.336178,0 -24.1789059,10.84273 -24.1789059,24.17891 v 12.08946 c 0,6.68698 5.4024759,12.08945 12.0894529,12.08945 h 24.89672 C 43.484498,155.43143 54.289442,140.35738 69.5146,132.0081 Z"
       inkscape:connector-curvature="0"
       style="fill:#ea2639;stroke-width:1;fill-opacity:1" />
  </g>
</svg>
