<?xml version="1.0" encoding="UTF-8" standalone="no"?>
<!-- Created with Inkscape (http://www.inkscape.org/) -->

<svg
   xmlns:dc="http://purl.org/dc/elements/1.1/"
   xmlns:cc="http://creativecommons.org/ns#"
   xmlns:rdf="http://www.w3.org/1999/02/22-rdf-syntax-ns#"
   xmlns:svg="http://www.w3.org/2000/svg"
   xmlns="http://www.w3.org/2000/svg"
   xmlns:sodipodi="http://sodipodi.sourceforge.net/DTD/sodipodi-0.dtd"
   xmlns:inkscape="http://www.inkscape.org/namespaces/inkscape"
   width="250px"
   height="250px"
   viewBox="0 0 250 250"
   version="1.1"
   id="SVGRoot"
   inkscape:version="0.92.3 (2405546, 2018-03-11)"
   sodipodi:docname="rysunek1.svg">
  <sodipodi:namedview
     id="base"
     pagecolor="#ffffff"
     bordercolor="#666666"
     borderopacity="1.0"
     inkscape:pageopacity="0.0"
     inkscape:pageshadow="2"
     inkscape:zoom="1.024"
     inkscape:cx="125"
     inkscape:cy="125"
     inkscape:document-units="px"
     inkscape:current-layer="layer1"
     showgrid="false"
     inkscape:window-width="1920"
     inkscape:window-height="1017"
     inkscape:window-x="-8"
     inkscape:window-y="-8"
     inkscape:window-maximized="1"
     inkscape:grid-bbox="true" />
  <defs
     id="defs1377" />
  <metadata
     id="metadata1380">
    <rdf:RDF>
      <cc:Work
         rdf:about="">
        <dc:format>image/svg+xml</dc:format>
        <dc:type
           rdf:resource="http://purl.org/dc/dcmitype/StillImage" />
        <dc:title></dc:title>
      </cc:Work>
    </rdf:RDF>
  </metadata>
  <g
     id="layer1"
     inkscape:groupmode="layer"
     inkscape:label="Layer 1">
    <path
       inkscape:connector-curvature="0"
       style="fill:#ea2639;stroke-width:0.99999994;fill-opacity:1"
       d="m 149.18066,149.18066 h -48.36133 c -6.676132,0 -12.090332,5.4142 -12.090332,12.09033 v 48.36134 c 0,6.67613 5.4142,12.09033 12.090332,12.09033 h 48.36133 c 6.67613,0 12.09033,-5.4142 12.09033,-12.09033 V 161.271 c 0,-6.67613 -5.4142,-12.09034 -12.09033,-12.09034 z M 76.638659,40.367669 c 0,-6.676132 -5.4142,-12.090334 -12.090322,-12.090334 H 16.187003 c -6.6761232,0 -12.0903242,5.414202 -12.0903242,12.090334 v 48.36134 c 0,6.676115 5.414201,12.090321 12.0903242,12.090321 H 52.35221 l 27.641528,48.37644 c 4.19383,-7.20131 11.90898,-12.10544 20.825592,-12.10544 h 0.1058 L 76.638658,94.589044 V 76.638669 H 161.27099 V 52.458002 H 76.638659 Z M 233.81299,28.277335 h -48.36133 c -6.67613,0 -12.09033,5.414202 -12.09033,12.090334 v 48.36134 c 0,6.676115 5.4142,12.090321 12.09033,12.090321 h 48.36133 c 6.67613,0 12.09033,-5.414196 12.09033,-12.090321 v -48.36134 c 0,-6.676132 -5.4142,-12.090334 -12.09033,-12.090334 z"
       id="path2" />
  </g>
</svg>
